# xmcd CD database file
#
# Track frame offsets:
#	150
#	27477
#	45383
#	61322
#	75060
#	94090
#	110591
#	122816
#	145763
#	159509
#	173405
#	186141
#	200389
#	212736
#	224949
#	237883
#	251251
#	262994
#	276646
#	290700
#
# Disc length: 4051 seconds
#
# Revision: 1
# Processed by: cddbd v1.5.2PL0 Copyright (c) Steve Scherf et al.
# Submitted via: CDex 1.51
#
DISCID=240fd114
DTITLE=Humphrey Lyttelton - The Best of Humphrey Lyttleton [CDTwo)
DYEAR=2003
DGENRE=Jazz
TTITLE0=Appex Blues
TTITLE1=I Want A Little Girl
TTITLE2=Jersey Lightening
TTITLE3=Waiting For Pickard
TTITLE4=Rockin' Chair
TTITLE5=Someone Stole Gabriel's Horn
TTITLE6=Just Squeeze Me
TTITLE7=Ole Miss Rag
TTITLE8=Wolverine Blues
TTITLE9=Down Home Rag
TTITLE10=The Lady In Red
TTITLE11=Get Out Of Here And Go Home
TTITLE12=She's Crying For Me
TTITLE13=Panama Rag
TTITLE14=Pagin' Mr. Fagin
TTITLE15=Trouble In Mind
TTITLE16=Skeleton In The Cupboard
TTITLE17=Tom Cat Blues
TTITLE18=Maple Leaf Rag
TTITLE19=Doin' The Rounds
EXTD=YEAR: 2003
EXTT0=
EXTT1=
EXTT2=
EXTT3=
EXTT4=
EXTT5=
EXTT6=
EXTT7=
EXTT8=
EXTT9=
EXTT10=
EXTT11=
EXTT12=
EXTT13=
EXTT14=
EXTT15=
EXTT16=
EXTT17=
EXTT18=
EXTT19=
PLAYORDER=
